<svg id="Heart" xmlns="http://www.w3.org/2000/svg" width="48.836" height="46" viewBox="0 0 48.836 46">
  <path id="Heart-2" data-name="Heart" d="M6.038,12.065C9.26,5.6,19.117,3.229,25.152,7.566a21.352,21.352,0,0,1,4,4.173c1.631-1.949,3.277-4.048,5.731-5.127a14.282,14.282,0,0,1,14.78,1.975,11.609,11.609,0,0,1,3.968,8.966c.111,4.506-2.032,8.7-4.307,12.537C44.246,38.3,36.6,44.609,29.673,51.364c-2.827-1.478-4.943-3.813-7.176-5.958C16.09,39.35,9.674,32.863,6.356,24.74c-1.6-4-2.357-8.685-.318-12.675m2.2,1.988c-1.4,5.154.581,10.49,3.38,14.892,4.68,7.207,11.261,13.021,17.566,18.92C35.5,42.208,41.854,36.407,46.444,29.351c2.06-3.218,3.961-6.671,4.4-10.464a9.5,9.5,0,0,0-3.2-8.4c-2.779-2.531-7.113-2.91-10.674-1.877-3.94,1.445-5.641,5.422-7.784,8.548-1.984-2.9-3.595-6.3-6.809-8.182C17.279,6.637,10.117,8.762,8.236,14.053Z" transform="translate(-4.802 -5.364)" fill="#fff"/>
</svg>
