<svg id="Account" xmlns="http://www.w3.org/2000/svg" width="40.5" height="46.2" viewBox="0 0 40.5 46.2">
  <path id="Account-2" data-name="Account" d="M55.3,44.5A18.78,18.78,0,0,0,52.6,39a19.454,19.454,0,0,0-4.2-4.4,21.164,21.164,0,0,0-4.9-2.7,12.206,12.206,0,0,0,2.5-2,17.554,17.554,0,0,0,2.4-3,11.948,11.948,0,0,0,1.5-3.5,13.062,13.062,0,0,0,.5-3.9,15.625,15.625,0,0,0-1.1-5.7,14.9,14.9,0,0,0-3.1-4.6,14.359,14.359,0,0,0-4.6-3.1A13.092,13.092,0,0,0,36,4.9,15.625,15.625,0,0,0,30.3,6a14.9,14.9,0,0,0-4.6,3.1,14.359,14.359,0,0,0-3.1,4.6,13.8,13.8,0,0,0-1.1,5.7,17.373,17.373,0,0,0,.5,3.9,19.426,19.426,0,0,0,1.5,3.6,17.554,17.554,0,0,0,2.4,3,17.855,17.855,0,0,0,2.6,2,18.321,18.321,0,0,0-4.9,2.8,19.454,19.454,0,0,0-4.2,4.4,21.644,21.644,0,0,0-2.7,5.5,21.628,21.628,0,0,0-.9,6.2v.3h3.5v-.3a16.844,16.844,0,0,1,.6-4.5,17.835,17.835,0,0,1,1.7-4,17.04,17.04,0,0,1,2.6-3.4,14.6,14.6,0,0,1,3.4-2.6,17.835,17.835,0,0,1,4-1.7,16.314,16.314,0,0,1,4.5-.6,15.877,15.877,0,0,1,6.6,1.3,15.847,15.847,0,0,1,8.8,8.8,18.048,18.048,0,0,1,1.3,6.6V51h3.5v-.3A25.9,25.9,0,0,0,55.3,44.5ZM36,8.4a10.356,10.356,0,0,1,4.3.9,11.577,11.577,0,0,1,5.9,5.9,10.722,10.722,0,0,1,0,8.6,11.577,11.577,0,0,1-5.9,5.9,10.722,10.722,0,0,1-8.6,0,11.577,11.577,0,0,1-5.9-5.9,10.6,10.6,0,0,1-.8-4.3,10.356,10.356,0,0,1,.9-4.3,11.577,11.577,0,0,1,5.9-5.9A9.582,9.582,0,0,1,36,8.4Z" transform="translate(-15.8 -4.9)" fill="#fff"/>
</svg>
